<svg xmlns="http://www.w3.org/2000/svg" width="30.986" height="30.986" viewBox="0 0 30.986 30.986">
  <path id="Icon_awesome-phone-alt" data-name="Icon awesome-phone-alt" d="M30.1,21.9l-6.778-2.9a1.452,1.452,0,0,0-1.695.418l-3,3.668A22.433,22.433,0,0,1,7.9,12.353l3.668-3a1.449,1.449,0,0,0,.418-1.695L9.084.878A1.462,1.462,0,0,0,7.42.037L1.126,1.489A1.452,1.452,0,0,0,0,2.905,28.078,28.078,0,0,0,28.081,30.987,1.452,1.452,0,0,0,29.5,29.861l1.452-6.294A1.47,1.47,0,0,0,30.1,21.9Z" transform="translate(0 0)" fill="#2a4f8d"/>
</svg>
