<svg id="typek" xmlns="http://www.w3.org/2000/svg" xmlns:xlink="http://www.w3.org/1999/xlink" width="548" height="548" viewBox="0 0 548 548">
  <defs>
    <clipPath id="clip-path">
      <rect id="Rectangle_417" data-name="Rectangle 417" width="548" height="548" fill="none"/>
    </clipPath>
  </defs>
  <g id="Group_214" data-name="Group 214" clip-path="url(#clip-path)">
    <path id="Path_283" data-name="Path 283" d="M274,0C122.674,0,0,122.674,0,274A272.8,272.8,0,0,0,56.63,440.828a27.147,27.147,0,0,1,5.615-3.559,45.652,45.652,0,0,1,13.323-8.138l.14-.055c14.294-5.593,26.319-17.323,38.524-23.184q7.516-3.613,15.259-6.731l60.855-24.538-.016-.6,25.86-14.128V324.6a42.936,42.936,0,0,1-2.519-4.639c-7.869-16.009-9.517-35.122-9.519-35.152v0a22.693,22.693,0,0,1-10.744-11.551c-7.38-17.008-10.919-49.419-10.919-49.419,0-5.721,8.673-1.245,10.556-.2-8.909-40.95.363-65.258.363-65.258s1.286-8.4,7.321-19.013l.012-.038.015-.01a75.935,75.935,0,0,1,22.495-24.581c17.409-12.251,37.154-14.281,48.3-14.286,2.06,0,3.83.063,5.242.148,1.413-.085,3.182-.151,5.242-.148,11.15,0,30.895,2.036,48.3,14.286,23.839,16.775,29.054,39.485,29.754,43.135.056.288.083.457.089.495l0,.013s.062.164.171.483c.046.136.1.3.163.5.048.149.1.312.155.495.047.152.1.319.149.495.046.157.094.32.143.494h0c.045.158.091.321.138.494h0q.066.239.134.5c.043.16.086.325.13.5s.083.324.126.494h0c.039.16.08.326.121.494h0c.039.16.078.327.118.495s.077.327.115.494h0c.037.162.074.326.111.494s.073.326.109.5h0c.035.161.069.328.1.495s.067.327.1.494h0c.033.163.067.326.1.494l.1.495c.031.163.062.329.093.5h0c.03.164.061.326.091.494h0c.03.162.058.329.087.494s.057.328.086.495.055.329.083.5.053.329.08.495.052.328.078.495.05.33.075.5.049.327.073.5.046.33.069.495.046.328.069.5.043.33.064.495.043.328.064.5.04.33.06.495.04.329.06.5.037.33.055.495.038.328.055.5.034.33.051.495.034.329.05.5.032.33.047.5.031.329.046.495.029.329.044.495.027.329.041.494h0c.013.164.027.328.04.494s.024.33.036.495h0c.012.165.026.328.037.5s.021.33.032.494h0c.011.165.022.329.032.494s.019.329.029.495h0c.01.164.018.33.027.495s.018.328.027.495h0c.009.163.015.33.022.494s.016.329.022.5h0c.007.164.013.329.02.494h0c.006.164.012.329.018.494s.012.329.017.5.009.33.013.495.009.329.013.5.008.329.011.5.005.33.008.495.006.329.008.5,0,.33,0,.495,0,.33,0,.5,0,.328,0,.495,0,.331,0,.5,0,.329,0,.495,0,.329,0,.5,0,.33-.007.495,0,.33-.007.5,0,.329-.009.495-.007.33-.012.5-.007.329-.012.495-.009.33-.013.5-.011.33-.016.495h0c-.005.165-.011.329-.017.495s-.012.329-.018.494h0c-.006.164-.014.33-.021.494h0c-.007.165-.014.329-.021.495s-.016.33-.024.5-.018.33-.027.494h0c-.009.165-.017.329-.027.495h0c-.009.165-.018.33-.028.5s-.021.33-.032.495-.02.329-.031.494h0c-.011.165-.021.329-.032.494s-.025.331-.037.5h0l-.036.494h0c-.013.165-.024.328-.037.494s-.028.331-.042.5-.027.33-.042.495h0c-.014.165-.027.329-.042.494h0c-.015.164-.03.33-.046.494s-.032.33-.047.5-.031.329-.047.495h0l-.049.494h0c-.016.164-.035.33-.052.494s-.035.33-.052.495-.035.329-.053.5-.039.33-.058.495h0q-.028.247-.057.495c-.019.166-.038.329-.058.5s-.041.33-.061.495-.042.33-.063.5-.041.329-.063.495-.042.329-.064.5-.046.33-.068.495-.045.33-.068.5-.044.329-.067.495-.048.33-.072.494h0c-.024.164-.049.33-.073.494h0c-.024.165-.049.33-.073.5s-.049.329-.074.495-.053.33-.078.494h0l-.078.494h0c-.026.166-.051.33-.078.5s-.054.33-.082.5-.056.329-.083.494h0l-.084.494h0c-.028.166-.055.329-.084.5s-.06.33-.089.494h0c-.029.165-.06.33-.089.494s-.058.33-.089.5-.06.329-.09.5h0c-.03.164-.063.33-.094.494h0c-.031.164-.063.329-.094.494s-.063.33-.095.5-.064.33-.1.495h0c-.032.164-.067.33-.1.494h0l-.1.494c-.033.166-.066.33-.1.5s-.069.33-.1.5-.07.33-.106.495-.07.33-.105.495-.063.3-.1.451c1.647-.916,10.661-5.684,10.661.149,0,0-3.539,32.411-10.919,49.419A22.684,22.684,0,0,1,349.727,284.7l-.014.1a144.678,144.678,0,0,1-6.339,26.612,72.773,72.773,0,0,1-4.07,9.978q-.78,1.625-1.63,3.2c-.06.11-.125.216-.186.326V359.9l28.41,14.128-.074,1.481,1.2-1.479,62.326,25.132q7.735,3.118,15.259,6.731c12.2,5.863,24.23,17.591,38.524,23.184l.139.055a45.652,45.652,0,0,1,11.759,6.818A272.761,272.761,0,0,0,548,274C548,122.674,425.326,0,274,0" fill="#2a4f8d"/>
    <path id="Path_284" data-name="Path 284" d="M519.893,494.08l-.139-.055c-14.294-5.592-26.32-17.321-38.524-23.184q-7.524-3.613-15.259-6.731l-62.326-25.132-1.2,1.479.074-1.481-28.41-14.129V389.874c.061-.11.126-.216.186-.326q.852-1.573,1.63-3.2a72.773,72.773,0,0,0,4.07-9.978,144.678,144.678,0,0,0,6.339-26.612l.014-.1A22.688,22.688,0,0,0,396.9,338.206c7.381-17.007,10.919-49.419,10.919-49.419,0-5.833-9.014-1.065-10.661-.149.033-.151.064-.3.1-.45l.106-.5c.035-.165.071-.331.105-.495s.07-.331.1-.5.067-.33.1-.5l.1-.494h0c.033-.165.067-.33.1-.494h0c.033-.166.065-.33.1-.5s.063-.33.095-.495.063-.33.094-.494h0c.031-.165.064-.33.094-.494h0c.031-.166.06-.33.09-.5s.06-.33.089-.5.06-.33.089-.494h0c.029-.164.06-.33.089-.494s.056-.33.084-.495h0l.084-.494h0c.027-.165.056-.33.083-.494s.055-.331.082-.5.052-.33.078-.5h0l.078-.494h0c.026-.165.053-.331.078-.494s.049-.33.074-.5.049-.33.073-.5h0c.024-.165.049-.33.073-.494h0c.024-.165.049-.33.072-.494s.045-.33.067-.495.046-.33.068-.495.046-.332.068-.5.043-.33.064-.5.041-.33.063-.495.042-.331.063-.5.041-.331.061-.495.038-.33.058-.5.038-.33.057-.495.039-.332.058-.5.035-.33.053-.495.035-.33.052-.5.035-.33.052-.494h0l.049-.494h0c.016-.166.031-.33.047-.495s.032-.331.047-.5.031-.33.046-.494h0c.015-.166.028-.329.042-.494h0q.022-.248.042-.495c.014-.165.029-.332.042-.5s.024-.329.037-.494h0c.013-.165.024-.33.036-.494h0c.012-.165.026-.331.037-.495s.022-.33.032-.494h0c.011-.165.021-.33.031-.494s.022-.331.032-.495.019-.33.028-.5h0c.01-.166.018-.33.027-.495h0c.009-.165.018-.331.027-.494s.016-.33.024-.495.014-.33.021-.5h0c.007-.165.015-.331.021-.494h0c.006-.165.013-.33.018-.494s.012-.33.017-.495h0c.005-.165.012-.331.016-.495s.009-.33.013-.5.008-.33.012-.495.009-.332.012-.495.006-.33.009-.5,0-.33.007-.5,0-.332.007-.495,0-.33,0-.5,0-.33,0-.495,0-.332,0-.495,0-.33,0-.5,0-.331,0-.5,0-.331,0-.495-.005-.33-.008-.5,0-.331-.008-.495-.007-.331-.011-.5-.009-.33-.013-.495-.008-.332-.013-.5-.012-.33-.017-.495-.012-.33-.018-.494h0c-.007-.165-.013-.33-.02-.494h0c-.007-.167-.015-.33-.022-.5s-.014-.332-.022-.494h0c-.009-.166-.018-.33-.027-.494s-.018-.331-.027-.5h0c-.01-.166-.019-.332-.029-.5s-.021-.33-.032-.494h0c-.01-.165-.021-.332-.032-.494s-.025-.33-.037-.5h0c-.012-.165-.024-.331-.036-.495l-.04-.494h0c-.014-.166-.027-.331-.041-.494s-.029-.332-.043-.5-.031-.33-.046-.495-.031-.332-.047-.5-.033-.33-.05-.5-.033-.332-.051-.495-.037-.33-.055-.495-.036-.333-.055-.5-.04-.33-.06-.495-.039-.333-.06-.5-.043-.33-.064-.5-.043-.332-.064-.495-.046-.33-.069-.5-.046-.333-.069-.495-.049-.33-.073-.495-.049-.333-.075-.5-.052-.331-.078-.5-.053-.332-.08-.495-.055-.332-.083-.5-.057-.332-.086-.495-.057-.333-.087-.494h0c-.03-.168-.061-.331-.091-.494h0c-.031-.167-.062-.333-.093-.5s-.064-.333-.1-.495-.066-.332-.1-.494h0c-.034-.167-.067-.332-.1-.494s-.07-.333-.1-.495h0c-.036-.169-.072-.332-.109-.495s-.074-.333-.111-.494h0c-.038-.168-.077-.333-.115-.494s-.079-.335-.118-.495h0l-.121-.494h0q-.064-.254-.126-.494c-.044-.171-.087-.336-.13-.5s-.09-.336-.134-.495h0c-.047-.173-.094-.336-.138-.494h0c-.05-.175-.1-.338-.143-.494-.052-.176-.1-.343-.149-.5-.056-.183-.107-.346-.155-.495-.062-.193-.117-.36-.163-.5-.109-.319-.171-.483-.171-.483l0-.013c-.005-.038-.033-.206-.089-.495-.7-3.65-5.915-26.36-29.754-43.134-17.408-12.251-37.153-14.282-48.3-14.287-2.061,0-3.83.063-5.242.148-1.413-.085-3.182-.151-5.242-.148-11.15,0-30.894,2.036-48.3,14.287a75.927,75.927,0,0,0-22.495,24.581l-.015.01-.012.038c-6.035,10.613-7.321,19.013-7.321,19.013s-9.272,24.308-.363,65.258c-1.883-1.04-10.556-5.516-10.556.2,0,0,3.538,32.412,10.918,49.419a22.693,22.693,0,0,0,10.744,11.551v0c0,.029,1.649,19.142,9.519,35.152a42.934,42.934,0,0,0,2.519,4.639v35.3l-25.86,14.129.016.6L166.108,464.11q-7.741,3.12-15.259,6.731c-12.205,5.861-24.23,17.591-38.524,23.184l-.14.055a45.673,45.673,0,0,0-13.323,8.138,27.171,27.171,0,0,0-5.615,3.559,274.114,274.114,0,0,0,438.4-4.88,45.669,45.669,0,0,0-11.759-6.818" transform="translate(-36.618 -64.949)" fill="#ededed"/>
  </g>
</svg>
