<svg id="typka" xmlns="http://www.w3.org/2000/svg" xmlns:xlink="http://www.w3.org/1999/xlink" width="548" height="548" viewBox="0 0 548 548">
  <defs>
    <clipPath id="clip-path">
      <rect id="Rectangle_418" data-name="Rectangle 418" width="548" height="548" fill="none"/>
    </clipPath>
  </defs>
  <g id="Group_215" data-name="Group 215" clip-path="url(#clip-path)">
    <path id="Path_285" data-name="Path 285" d="M670.095,839.96c.473-.264.949-.527,1.42-.794l-2.523-7.543c.486,2.759.846,5.541,1.1,8.337" transform="translate(-262.708 -326.572)" fill="#fff"/>
    <path id="Path_286" data-name="Path 286" d="M670.095,839.96c.473-.264.949-.527,1.42-.794l-2.523-7.543c.486,2.759.846,5.541,1.1,8.337" transform="translate(-262.708 -326.572)" fill="#fff"/>
    <path id="Path_287" data-name="Path 287" d="M670.095,839.96c.473-.264.949-.527,1.42-.794l-2.523-7.543c.486,2.759.846,5.541,1.1,8.337" transform="translate(-262.708 -326.572)" fill="#fff"/>
    <path id="Path_288" data-name="Path 288" d="M146.184,364.332c11.507,0,24.538-.352,36.765-.819q1.861-.071,3.694-.145c-.982-6.557-1.829-13.01-2.5-19.214-16.923-107.34,4.8-167.57,19.483-194.164a50.894,50.894,0,0,1,2.317-4.642l.012-.034.013-.01a69.381,69.381,0,0,1,20.814-22.289c19.07-13.155,41.2-13.365,49.571-12.884,8.372-.511,30.5-.378,49.616,12.709a68.489,68.489,0,0,1,23.993,28.186c15.163,27.58,38.153,92.712,15.087,212.487,12.227.467,25.259.819,36.765.819,0,0,40.4-2.072,66.291,91.15q1.316,4.741,2.56,9.293,1.1-1.14,2.2-2.29A273.059,273.059,0,0,0,548,274C548,122.674,425.326,0,274,0S0,122.674,0,274A273.091,273.091,0,0,0,77.333,464.775q1.246-4.559,2.56-9.292c25.895-93.222,66.291-91.15,66.291-91.15" fill="#fff"/>
    <path id="Path_289" data-name="Path 289" d="M146.184,364.332c11.507,0,24.538-.352,36.765-.819q1.861-.071,3.694-.145c-.982-6.557-1.829-13.01-2.5-19.214-16.923-107.34,4.8-167.57,19.483-194.164a50.894,50.894,0,0,1,2.317-4.642l.012-.034.013-.01a69.381,69.381,0,0,1,20.814-22.289c19.07-13.155,41.2-13.365,49.571-12.884,8.372-.511,30.5-.378,49.616,12.709a68.489,68.489,0,0,1,23.993,28.186c15.163,27.58,38.153,92.712,15.087,212.487,12.227.467,25.259.819,36.765.819,0,0,40.4-2.072,66.291,91.15q1.316,4.741,2.56,9.293,1.1-1.14,2.2-2.29A273.059,273.059,0,0,0,548,274C548,122.674,425.326,0,274,0S0,122.674,0,274A273.091,273.091,0,0,0,77.333,464.775q1.246-4.559,2.56-9.292c25.895-93.222,66.291-91.15,66.291-91.15" fill="#fff"/>
    <path id="Path_290" data-name="Path 290" d="M146.184,364.332c11.507,0,24.538-.352,36.765-.819q1.861-.071,3.694-.145c-.982-6.557-1.829-13.01-2.5-19.214-16.923-107.34,4.8-167.57,19.483-194.164a50.894,50.894,0,0,1,2.317-4.642l.012-.034.013-.01a69.381,69.381,0,0,1,20.814-22.289c19.07-13.155,41.2-13.365,49.571-12.884,8.372-.511,30.5-.378,49.616,12.709a68.489,68.489,0,0,1,23.993,28.186c15.163,27.58,38.153,92.712,15.087,212.487,12.227.467,25.259.819,36.765.819,0,0,40.4-2.072,66.291,91.15q1.316,4.741,2.56,9.293,1.1-1.14,2.2-2.29A273.059,273.059,0,0,0,548,274C548,122.674,425.326,0,274,0S0,122.674,0,274A273.091,273.091,0,0,0,77.333,464.775q1.246-4.559,2.56-9.292c25.895-93.222,66.291-91.15,66.291-91.15" fill="#2a4f8d"/>
    <path id="Path_291" data-name="Path 291" d="M229.2,843.6c.472.267.946.531,1.42.8.257-2.8-1.42-.8-1.42-.8" transform="translate(-90.003 -331.001)" fill="#fff"/>
    <path id="Path_292" data-name="Path 292" d="M229.2,843.6c.472.267.946.531,1.42.8.257-2.8-1.42-.8-1.42-.8" transform="translate(-90.003 -331.001)" fill="#fff"/>
    <path id="Path_293" data-name="Path 293" d="M229.2,843.6c.472.267.946.531,1.42.8.257-2.8-1.42-.8-1.42-.8" transform="translate(-90.003 -331.001)" fill="#fff"/>
    <path id="Path_294" data-name="Path 294" d="M520.672,535.894q-1.247-4.559-2.56-9.292c-25.895-93.222-66.291-91.151-66.291-91.151-11.506,0-24.537-.352-36.765-.819,23.067-119.775.077-184.908-15.087-212.487a68.485,68.485,0,0,0-23.993-28.186c-19.116-13.087-41.244-13.22-49.616-12.709-8.374-.48-30.5-.27-49.571,12.884a69.383,69.383,0,0,0-20.814,22.289l-.013.009-.012.035a50.8,50.8,0,0,0-2.318,4.642c-14.684,26.593-36.406,86.824-19.483,194.164.669,6.2,1.516,12.657,2.5,19.214q-1.833.075-3.694.146c-12.227.466-25.258.819-36.765.819,0,0-40.4-2.072-66.291,91.151q-1.316,4.74-2.56,9.291c.284.293.565.588.85.879A275.067,275.067,0,0,0,189.2,583.713l1.421.8a274.336,274.336,0,0,0,266.774,0l1.42-.794a275.109,275.109,0,0,0,61.86-47.819" transform="translate(-50.005 -71.118)" fill="#ededed"/>
  </g>
</svg>
